<svg width="364" height="64" viewBox="0 0 364 64" fill="none" xmlns="http://www.w3.org/2000/svg">
<path fill-rule="evenodd" clip-rule="evenodd" d="M100.481 25.4227C103.6 25.4227 106.052 26.4337 107.881 28.4343L108.289 28.9075V26.0895H114.463V50.0319H108.289V47.2139L107.881 47.6872C106.052 49.6877 103.6 50.6988 100.481 50.6988C97.2969 50.6988 94.5434 49.4726 92.2632 47.0418C89.9829 44.5895 88.8428 41.5994 88.8428 38.0715C88.8428 34.5436 89.9829 31.532 92.2632 29.1011C94.5649 26.6273 97.2969 25.4227 100.481 25.4227ZM73.6772 25.4227C77.1836 25.4227 80.0876 26.6273 82.3679 29.0581C84.6481 31.4889 85.7882 34.479 85.7882 38.05C85.7882 38.5878 85.7452 39.1255 85.6806 39.7064L85.5516 40.5883H67.5033C68.3423 43.5785 70.5795 45.0843 74.258 45.0843C76.6243 45.0843 78.4097 44.2883 79.6144 42.6965H85.5516C85.1644 44.2453 85.0783 44.4604 84.433 45.579C82.669 48.4616 78.7539 50.6988 74.1504 50.6988C70.1923 50.6988 67.0086 49.4941 64.6208 47.1064C62.233 44.7186 61.0284 41.7069 61.0284 38.05C61.0284 34.436 62.2115 31.4244 64.5778 29.0151C66.944 26.6058 69.9772 25.4227 73.6772 25.4227ZM6.60405 14V40.6959C6.60405 42.3523 7.93778 43.686 9.59417 43.686H19.3819V50.0104H5.98022C2.66743 50.0104 0 47.3215 0 44.0302V14H6.60405ZM29.0191 26.0895V50.0319H22.8453V26.0895H29.0191ZM47.9708 25.4227C50.5952 25.4227 52.7464 26.3046 54.4673 28.0471C56.1883 29.7895 57.0272 32.2203 57.0272 35.318V50.0104H50.8534V36.0924L50.8319 35.5116C50.7458 34.1994 50.3156 33.1668 49.5627 32.4354C48.7022 31.5965 47.5621 31.1663 46.1208 31.1663C44.529 31.1663 43.2383 31.661 42.2918 32.6506C41.3238 33.6401 40.8505 35.1244 40.8505 37.1035V50.0319H34.6767V26.0895H40.8505V28.7785L41.1517 28.3482C42.6575 26.3907 44.9377 25.4227 47.9708 25.4227ZM133.522 25.5948V32.4785L132.899 32.4354C131.264 32.3494 129.779 32.7581 128.467 33.6401C126.983 34.6296 126.251 36.2645 126.251 38.5662V50.0104H120.078V26.0895H126.251V30.1982L126.488 29.6389C127.069 28.3913 127.951 27.4232 129.113 26.7564C130.425 25.982 131.888 25.5948 133.522 25.5948ZM101.642 31.2953C99.7277 31.2953 98.1573 31.9192 96.9097 33.1883C95.662 34.4575 95.0382 36.0709 95.0382 38.05C95.0382 40.029 95.662 41.6639 96.9097 42.9331C98.1573 44.1808 99.7277 44.8046 101.642 44.8046C103.557 44.8046 105.149 44.1808 106.396 42.9116C107.665 41.6424 108.289 40.029 108.289 38.05C108.289 36.0709 107.665 34.4575 106.396 33.1883C105.149 31.9407 103.557 31.2953 101.642 31.2953ZM73.6772 30.9727C72.0208 30.9727 70.644 31.4029 69.5685 32.2418C68.6219 32.9732 67.9551 33.9843 67.5679 35.2535L67.4173 35.8128H79.6359C79.2917 34.1779 78.5603 32.9732 77.4632 32.1773C76.3446 31.3599 75.0754 30.9727 73.6772 30.9727Z" fill="#050E26"/>
<path d="M39.8394 14.192C39.8394 17.3446 37.3982 19.9275 34.3017 20.1558L33.8565 20.1738H22.5226V19.9814C22.5226 16.8288 24.9639 14.2459 28.0603 14.0176L28.5073 13.9996H39.8394V14.192V14.192Z" fill="url(#paint0_linear)"/>
<path d="M166.048 50.3331L177.342 16.818H170.114L161.982 42.5674L153.808 16.818H146.623L157.874 50.3331H166.048ZM190.657 50.9999C194.013 50.9999 196.616 49.8383 198.466 47.515V50.3331H204.64V26.3906H198.466V29.2087C196.616 26.8854 194.013 25.7238 190.657 25.7238C187.474 25.7238 184.72 26.9499 182.44 29.3808C180.16 31.8116 179.02 34.8232 179.02 38.3511C179.02 41.879 180.16 44.8906 182.44 47.3214C184.72 49.7522 187.474 50.9999 190.657 50.9999ZM191.819 45.1057C189.904 45.1057 188.334 44.4819 187.086 43.2342C185.839 41.965 185.215 40.3302 185.215 38.3511C185.215 36.372 185.839 34.7587 187.086 33.4895C188.334 32.2203 189.904 31.5965 191.819 31.5965C193.733 31.5965 195.325 32.2203 196.573 33.4895C197.842 34.7587 198.466 36.372 198.466 38.3511C198.466 40.3302 197.842 41.9435 196.573 43.2127C195.325 44.4819 193.733 45.1057 191.819 45.1057ZM218.924 50.9999C222.172 50.9999 224.56 49.8813 226.065 47.6441V50.3331H232.239V26.3906H226.065V39.3191C226.065 41.2982 225.592 42.7825 224.624 43.772C223.656 44.7616 222.387 45.2563 220.795 45.2563C219.354 45.2563 218.214 44.8261 217.353 43.9871C216.493 43.1482 216.062 41.922 216.062 40.3302V26.3906H209.889V41.0831C209.889 44.1807 210.749 46.6116 212.449 48.354C214.126 50.1179 216.299 50.9999 218.924 50.9999ZM244.049 50.3331V15.3767H237.875V50.3331H244.049ZM254.418 49.1284C256.16 50.3976 259.15 50.8063 263.388 50.3331V44.74C262.205 44.8046 261.215 44.8046 260.419 44.7616C259.623 44.7185 259.021 44.5034 258.591 44.1162C258.182 43.729 257.967 43.1267 257.967 42.2877V32.3278H263.366V26.3906H257.967V19.679L251.793 21.5505V26.3906H247.62V32.3278H251.793V42.2877C251.815 45.579 252.675 47.8592 254.418 49.1284Z" fill="#1A38F8"/>
<defs>
<linearGradient id="paint0_linear" x1="38.7666" y1="16.7042" x2="23.5954" y2="16.7042" gradientUnits="userSpaceOnUse">
<stop stop-color="#7EB5FF"/>
<stop offset="0.99952" stop-color="#1A38F8"/>
</linearGradient>
</defs>
</svg>
