<svg xmlns="http://www.w3.org/2000/svg" viewBox="0 0 203 40">
  <defs>
    <linearGradient id="a" x1="87.61%" x2="0%" y1="50%" y2="50%">
      <stop offset="0%" stop-color="#7EB5FF"/>
      <stop offset="99.97%" stop-color="#1A38F8"/>
    </linearGradient>
    <linearGradient id="b" x1="43.8%" x2="43.8%" y1="6.2%" y2="93.81%">
      <stop offset="0%" stop-color="#7EB5FF"/>
      <stop offset="99.95%" stop-color="#1A38F8"/>
    </linearGradient>
  </defs>
  <g fill="none" fill-rule="evenodd">
    <path fill="url(#a)" fill-rule="nonzero" d="M9.98 6.73c1.8-.21 3.1.1 3.94.95a4.15 4.15 0 011.3 2.9V33.3a5.45 5.45 0 01-3.67-.88c-1-.7-1.52-1.71-1.57-3.03zm8.1 0c1.78-.21 3.1.1 3.93.95a4.15 4.15 0 011.3 2.9V33.3a5.45 5.45 0 01-3.67-.88c-1-.7-1.52-1.71-1.57-3.03zm8.08 0c1.8-.21 3.1.1 3.95.95a4.15 4.15 0 011.3 2.9V33.3a5.45 5.45 0 01-3.68-.88c-1-.7-1.52-1.71-1.57-3.03z" transform="rotate(-135 20.7 20)"/>
    <path fill="#050E26" d="M109.13 16.12c1.76 0 3.15.59 4.17 1.75l.17.2V16.5h3.43v13.33h-3.43v-1.57l-.17.2a5.25 5.25 0 01-4.17 1.74c-1.78 0-3.3-.68-4.57-2.04a7.05 7.05 0 01-1.9-5c0-1.97.63-3.64 1.9-5a6.03 6.03 0 014.57-2.04zm-14.91 0c1.95 0 3.56.68 4.83 2.03a7.04 7.04 0 011.9 5.01c0 .34-.02.69-.07 1.05l-.06.37H90.78c.47 1.67 1.72 2.5 3.76 2.5 1.22 0 2.17-.38 2.84-1.16l.14-.17h3.3c-.21.87-.27.98-.62 1.6-.99 1.6-3.16 2.85-5.71 2.85-2.2 0-3.97-.66-5.3-2s-2-3.01-2-5.04a6.77 6.77 0 017.03-7.04zm-37.3-6.35v15.54a1 1 0 001 1h6.1v3.52h-8.77a2 2 0 01-2-2V9.77h3.67zm12.46 6.73v13.33h-3.43V16.5h3.43zm10.54-.38c1.46 0 2.66.5 3.61 1.47a5.57 5.57 0 011.43 4.05v8.19h-3.44v-8a2.61 2.61 0 00-.72-1.8 2.62 2.62 0 00-1.91-.7c-.9 0-1.6.27-2.13.82-.54.55-.8 1.38-.8 2.48v7.2h-3.44V16.5h3.44v1.49l.13-.2c.84-1.1 2.12-1.67 3.83-1.67zm47.58.11v3.84l-.26-.02c-.94-.07-1.8.15-2.55.66-.83.55-1.24 1.47-1.24 2.75v6.37h-3.43V16.5h3.43v2.29l.1-.23c.32-.74.81-1.3 1.48-1.69a4.82 4.82 0 012.47-.64zm-17.73 3.17c-1.07 0-1.95.35-2.64 1.06a3.7 3.7 0 00-1.04 2.7c0 1.1.35 2.01 1.04 2.72.7.7 1.57 1.04 2.64 1.04a3.6 3.6 0 003.7-3.76 3.6 3.6 0 00-3.7-3.76zm-15.55-.18c-.92 0-1.69.23-2.29.7-.54.43-.92 1-1.13 1.74l-.07.25h6.8a3.22 3.22 0 00-3.31-2.7z"/>
    <path fill="url(#b)" fill-rule="nonzero" d="M15.73-1.67c1.76 0 3.2 1.36 3.32 3.08l.01.25v6.32h-.1a3.33 3.33 0 01-3.32-3.09l-.01-.25v-6.31h.1z" transform="rotate(90 39.8 33.94)"/>
    <path fill="#0020EF" fill-rule="nonzero" d="M142.4 30.25c2 0 3.63-.51 4.88-1.52a5.01 5.01 0 001.88-4.11 5.24 5.24 0 00-.68-2.64 3.65 3.65 0 00-.81-.93 7.15 7.15 0 00-2.12-1.3 22.2 22.2 0 00-2.49-.86 10.25 10.25 0 01-2.8-1.19 1.7 1.7 0 01-.74-1.43c0-.55.22-1 .66-1.34a2.8 2.8 0 011.8-.52c1.62 0 2.81.8 3.56 2.4h3.25c.18-.1.12-.7-.16-1.79a7.43 7.43 0 00-2.68-3.08 7.18 7.18 0 00-3.98-1.1c-1.68 0-3.13.5-4.32 1.5s-1.8 2.35-1.8 4.04c0 .85.15 1.6.45 2.24.3.64.74 1.17 1.32 1.59.58.41 1.15.75 1.73 1 .58.25 1.28.5 2.12.74 1.5.43 2.55.83 3.14 1.19.58.36.88.88.88 1.53 0 .57-.24 1.04-.72 1.42-.48.37-1.24.56-2.27.56-2.13 0-3.56-.95-4.28-2.86h-3.44c0 .59.1 1.2.3 1.84a6.63 6.63 0 002.66 3.38 8.32 8.32 0 004.66 1.24zm15.23-.38l2.45-8.08 2.44 8.08h3.28l4.23-13.33h-3.64l-2.27 8.21-2.42-8.21h-3.25l-2.42 8.19-2.26-8.19h-3.65l4.23 13.33h3.28zm20.04.38c1.87 0 3.31-.65 4.34-1.95v1.57h3.44V16.54H182v1.57a5.22 5.22 0 00-4.34-1.94c-1.77 0-3.3.68-4.56 2.04a7.05 7.05 0 00-1.9 5c0 1.97.63 3.64 1.9 5a6.03 6.03 0 004.56 2.04zm.64-3.28a3.57 3.57 0 01-2.63-1.04 3.74 3.74 0 01-1.04-2.72c0-1.1.34-2 1.04-2.71.69-.7 1.57-1.05 2.63-1.05a3.58 3.58 0 013.7 3.76 3.59 3.59 0 01-3.7 3.76zM192 35.2V28.3a5.15 5.15 0 004.3 1.95c1.8 0 3.33-.68 4.6-2.04a7.05 7.05 0 001.9-5c0-1.98-.63-3.64-1.9-5a6.06 6.06 0 00-4.6-2.04c-1.86 0-3.3.65-4.3 1.94v-1.57h-3.44v18.67H192zm3.67-8.24a3.57 3.57 0 01-2.64-1.04A3.74 3.74 0 01192 23.2a3.55 3.55 0 013.67-3.76 3.59 3.59 0 013.7 3.76 3.59 3.59 0 01-3.7 3.76z"/>
  </g>
</svg>
